# xmcd
#
# Track frame offsets:
#	150
#	9666
#	24379
#	35678
#	49324
#	59248
#	70461
#	81908
#	94288
#	104643
#	119428
#	132886
#	143140
#	154443
#	163385
#	173597
#	183667
#	194005
#
# Disc length: 2775 seconds
# Revision: 3
# Processed by: cddbd v1.5.2PL0 Copyright (c) Steve Scherf et al.
# Submitted via: dBpowerAMP V12.0
#
DISCID=1a0ad512
DTITLE=Marty Robbins - Six Classic Albums Plus Bonus Singles [Remastered]
DYEAR=1956
DGENRE=Western
TTITLE0=Long Tall Sally [Remastered]
TTITLE1=Tennessee Toddy [Remastered]
TTITLE2=Maybelline [Remastered]
TTITLE3=Respectfully Miss Brooks [Remastered]
TTITLE4=Mean Mama Blues [Remastered]
TTITLE5=Long Gone Lonesome Blues [Remastered]
TTITLE6=Lovesick Blues [Remastered]
TTITLE7=I'm So Lonesome I Could Cry [Remastered]
TTITLE8=It's Too Late Now [Remastered]
TTITLE9=Rose of Ol' Pawnee [Remastered]
TTITLE10=I Never Let You Cross My Mind [Remastered]
TTITLE11=I Hang My Head and Cry [Remastered]
TTITLE12=You Only Want Me When You're Lonely [Remastered]
TTITLE13=Moanin' the Blues [Remastered]
TTITLE14=I'll Step Aside [Remastered]
TTITLE15=All the World Is Lonely Now [Remastered]
TTITLE16=Bouquet of Roses [Remastered]
TTITLE17=Have I Told You Lately That I Love You [Remastered]
EXTD=
EXTT0=
EXTT1=
EXTT2=
EXTT3=
EXTT4=
EXTT5=
EXTT6=
EXTT7=
EXTT8=
EXTT9=
EXTT10=
EXTT11=
EXTT12=
EXTT13=
EXTT14=
EXTT15=
EXTT16=
EXTT17=
PLAYORDER=
